<?xml version="1.0" encoding="UTF-8"?>
<!-- Created with Inkscape (http://www.inkscape.org/) -->
<svg width="40" height="40" version="1.1" viewBox="0 0 10.6 10.6" xmlns="http://www.w3.org/2000/svg">
 <g>
  <g fill="none" stroke="#000" stroke-width=".265px">
   <path d="M -1.325,11.925 7.95,2.65"/>
   <path d="m2.65 11.925 5.3-5.3"/>
   <path d="m7.95-1.325-5.3 5.3"/>
   <path d="m2.65 0-5.3 5.3"/>
   <path d="m13.25 3.975-5.3 5.3"/>
  </g>
  <g stroke-dasharray="2.15445, 2.15445" stroke-linejoin="round" stroke-width=".359075">
   <circle cx="1.9875" cy="1.9875" r=".6625"/>
   <circle cx="4.6375" cy="4.6375" r=".6625"/>
   <circle cx="7.2875" cy="1.9875" r=".6625"/>
   <circle cx=".6625" cy="7.2875" r=".6625"/>
   <circle cx="9.9375" cy="4.6375" r=".6625"/>
   <circle cx="3.3125" cy="8.6125" r=".6625"/>
   <circle cx="7.2875" cy="7.155" r=".6625"/>
   <circle cx="9.9375" cy="9.9375" r=".6625"/>
  </g>
 </g>
 <g display="none" stroke-dasharray="2.15445, 2.15445" stroke-linejoin="round" stroke-width=".359075">
  <circle cx="1.06" cy="1.06" r=".265"/>
  <circle cx="2.385" cy="2.385" r=".265"/>
  <circle cx="6.36" cy="1.06" r=".265"/>
  <circle cx="7.685" cy="2.385" r=".265"/>
  <circle cx="2.915" cy="7.685" r=".265"/>
  <circle cx="5.035" cy="6.89" r=".265"/>
  <circle cx="9.54" cy="5.565" r=".265"/>
  <circle cx="10.335" cy="6.36" r=".265"/>
  <circle cx="1.06" cy="9.01" r=".265"/>
  <circle cx="9.54" cy="2.915" r=".265"/>
  <circle cx="6.36" cy="3.71" r=".265"/>
  <circle cx="7.685" cy="5.035" r=".265"/>
  <circle cx="1.59" cy="4.24" r=".265"/>
  <circle cx="8.215" cy="8.215" r=".265"/>
  <circle cx="5.035" cy="9.275" r=".265"/>
  <circle cx="5.035" cy="1.59" r=".265"/>
  <circle cx="9.01" cy=".795" r=".265"/>
  <circle cx="3.445" cy="4.77" r=".265"/>
  <circle cx=".795" cy="5.83" r=".265"/>
  <circle cx="9.01" cy="9.54" r=".265"/>
  <circle cx="6.625" cy="7.95" r=".265"/>
  <circle cx="6.625" cy="5.83" r=".265"/>
  <circle cx="4.24" cy="2.65" r=".265"/>
 </g>
</svg>
